<svg xmlns="http://www.w3.org/2000/svg" viewBox="0 0 200 200" width="200" height="200">
  <!-- Background Paper -->
  <rect x="20" y="20" width="160" height="200" rx="10" ry="10" fill="white" stroke="black" stroke-width="2"/>

  <!-- Goblin Head -->
  <circle cx="100" cy="100" r="40" fill="green" stroke="black" stroke-width="2"/>

  <!-- Goblin Eyes -->
  <circle cx="85" cy="90" r="5" fill="white"/>
  <circle cx="115" cy="90" r="5" fill="white"/>
  <circle cx="85" cy="90" r="2" fill="black"/>
  <circle cx="115" cy="90" r="2" fill="black"/>

  <!-- Goblin Smile -->
  <path d="M80,110 Q100,130 120,110" fill="none" stroke="black" stroke-width="2"/>

  <!-- Goblin Ears -->
  <path d="M60,100 Q50,80 65,70" fill="green" stroke="black" stroke-width="2"/>
  <path d="M140,100 Q150,80 135,70" fill="green" stroke="black" stroke-width="2"/>

  <!-- Lines on Paper -->
  <line x1="30" y1="50" x2="170" y2="50" stroke="gray" stroke-width="1" />
  <line x1="30" y1="70" x2="170" y2="70" stroke="gray" stroke-width="1" />
  <line x1="30" y1="90" x2="170" y2="90" stroke="gray" stroke-width="1" />
  <line x1="30" y1="110" x2="170" y2="110" stroke="gray" stroke-width="1" />

  <!-- Fold in Paper -->
  <path d="M180,20 Q190,30 180,40" fill="white" stroke="black" stroke-width="2"/>
</svg>
